[Header]
FileType HTR
DataType HTRS
FileVersion 1
NumSegments 22
NumFrames 6
DataFrameRate 24
EulerRotationOrder ZYX
CalibrationUnits mm
RotationUnits Degrees
GlobalAxisofGravity Y
BoneLengthAxis Y
ScaleFactor 1.0
[SegmentNames&Hierarchy]
reference	GLOBAL
Hips	reference
Spine	Hips
Spine1	Spine
Neck	Spine1
Head	Neck
LeftShoulder	Spine1
LeftArm	LeftShoulder
LeftForeArm	LeftArm
LeftHand	LeftForeArm
RightShoulder	Spine1
RightArm	RightShoulder
RightForeArm	RightArm
RightHand	RightForeArm
LeftUpLeg	Hips
LeftLeg	LeftUpLeg
LeftFoot	LeftLeg
LeftToeBase	LeftFoot
RightUpLeg	Hips
RightLeg	RightUpLeg
RightFoot	RightLeg
RightToeBase	RightFoot
[BasePosition]
reference	0	0	0	0	0	0	1
Hips	0	0	0	0	0	0	1
Spine	0	0	0	0	-0	90	1
Spine1	0	0	0	0	0	0	1
Neck	0	0	0	-7.352327771	-7.352327771	90	1
Head	0	0	0	0	-0	90	1
LeftShoulder	0	0	0	0	0	0	1
LeftArm	0	0	0	0	0	0	1
LeftForeArm	0	0	0	0	0	0	1
LeftHand	0	0	0	0	0	0	1
RightShoulder	0	0	0	0	-0	180	1
RightArm	0	0	0	0	-0	180	1
RightForeArm	0	0	0	0	-0	180	1
RightHand	0	0	0	0	-0	180	1
LeftUpLeg	0	0	0	0	-0	-90	1
LeftLeg	0	0	0	0	-0	-90	1
LeftFoot	0	0	0	66.57146043	-66.57146043	-90	1
LeftToeBase	0	0	0	0	-90	0	1
RightUpLeg	0	0	0	0	-0	-90	1
RightLeg	0	0	0	0	-0	-90	1
RightFoot	0	0	0	66.57146043	-66.57146043	-90	1
RightToeBase	0	0	0	0	-90	0	1
[reference]
10	0	0	0	0	-0	0	1.0
11	0	0	0	0	-0	0	1.0
12	0	0	0	0	-0	0	1.0
13	0	0	0	0	-0	0	1.0
14	0	0	0	0	-0	0	1.0
15	0	0	0	0	-0	0	1.0
[Hips]
10	7.445380211	8.243370056	4.620369911	-7.957007408	-104.0397491	10.9033432	1.0
11	7.445380211	8.243370056	4.620369911	-7.604115963	-104.5281982	10.7895422	1.0
12	7.445380211	8.243370056	4.620369911	-7.21928215	-105.1936188	10.88301277	1.0
13	7.445380211	8.243370056	4.620369911	-6.028503418	-106.0752869	10.26203918	1.0
14	7.445380211	8.243370056	4.620369911	-3.813256979	-107.2133331	8.72742939	1.0
15	7.445380211	8.243370056	4.620369911	-1.038160443	-108.3907623	6.375960827	1.0
[Spine]
10	0	0.7457100153	0	-8.042396545	-1.241734028	-89.87789917	1.0
11	0	0.7457100153	0	-8.050165176	-1.223654747	-89.7960968	1.0
12	0	0.7457100153	0	-8.015672684	-1.094135642	-89.74882507	1.0
13	0	0.7457100153	0	-7.810770988	-0.8563300371	-89.85029602	1.0
14	0	0.7457100153	0	-7.521395206	-0.5523338318	-90.12472534	1.0
15	0	0.7457100153	0	-7.462390423	-1.112983108	-91.27719116	1.0
[Spine1]
10	0	2.140589952	0	10.94793892	-0.6305132508	2.241397619	1.0
11	0	2.140589952	0	10.820961	-0.6069486141	2.207538605	1.0
12	0	2.140589952	0	10.68143082	-0.5777426958	2.272687912	1.0
13	0	2.140589952	0	10.23109818	-0.4958280325	2.296194792	1.0
14	0	2.140589952	0	9.537282944	-0.3604193628	2.055865049	1.0
15	0	2.140589952	0	9.078885078	-0.2298217565	1.527294874	1.0
[Neck]
10	0	2.32246995	0	-14.75409126	1.976067305	-88.69526672	1.0
11	0	2.32246995	0	-14.85189819	2.211197376	-88.75422668	1.0
12	0	2.32246995	0	-14.95730114	2.480900288	-88.81568909	1.0
13	0	2.32246995	0	-15.07805729	2.832511187	-88.88851166	1.0
14	0	2.32246995	0	-15.2314949	3.263597488	-88.96025848	1.0
15	0	2.32246995	0	-15.61704731	4.79372406	-89.38412476	1.0
[Head]
10	0	1.409579992	0.1818799973	-10.97256947	0.1985582709	-95.17921448	1.0
11	0	1.409579992	0.1818799973	-11.14583969	0.1912600845	-95.14559937	1.0
12	0	1.409579992	0.1818799973	-11.48424244	0.1624167562	-94.83709717	1.0
13	0	1.409579992	0.1818799973	-11.86562252	0.1481669396	-94.31228638	1.0
14	0	1.409579992	0.1818799973	-12.38506413	0.1162070781	-93.47459412	1.0
15	0	1.409579992	0.1818799973	-13.08973885	0.4931323826	-95.73061371	1.0
[LeftShoulder]
10	0.3668199778	1.946700096	-0.02662999928	-14.69300938	-12.18145752	-2.298537254	1.0
11	0.3668199778	1.946700096	-0.02662999928	-14.56954002	-12.17344379	-2.290408611	1.0
12	0.3668199778	1.946700096	-0.02662999928	-14.70366287	-12.14315224	-2.229732513	1.0
13	0.3668199778	1.946700096	-0.02662999928	-14.61447334	-12.15627766	-2.110146999	1.0
14	0.3668199778	1.946700096	-0.02662999928	-14.62063122	-12.1798687	-1.827216625	1.0
15	0.3668199778	1.946700096	-0.02662999928	-14.52674103	-12.44999409	-1.659865975	1.0
[LeftArm]
10	1.140689969	0	0	43.21170807	14.85311317	-77.99851227	1.0
11	1.140689969	0	0	43.8448143	14.74581051	-78.11193085	1.0
12	1.140689969	0	0	43.96833801	14.68370628	-78.24393463	1.0
13	1.140689969	0	0	44.27857971	14.45375633	-78.36617279	1.0
14	1.140689969	0	0	45.3043251	14.51664543	-78.46232605	1.0
15	1.140689969	0	0	45.27007294	14.49712086	-78.09915161	1.0
[LeftForeArm]
10	2.749800205	0	0	-16.02859879	-14.20946503	3.906443834	1.0
11	2.749800205	0	0	-15.83737755	-14.24396992	3.969304562	1.0
12	2.749800205	0	0	-15.48582458	-14.3963213	3.741213083	1.0
13	2.749800205	0	0	-15.18600273	-14.5708847	3.578153133	1.0
14	2.749800205	0	0	-15.59902191	-14.86277676	3.928861618	1.0
15	2.749800205	0	0	-15.50766945	-15.15797424	3.798004866	1.0
[LeftHand]
10	2.295179844	0	0	-15.54182434	-3.727923155	0.01000096928	1.0
11	2.295179844	0	0	-15.32295036	-3.826892138	-0.5469155312	1.0
12	2.295179844	0	0	-15.00108624	-3.816021442	-0.3630104959	1.0
13	2.295179844	0	0	-14.71560097	-3.982061863	-0.3680222332	1.0
14	2.295179844	0	0	-15.07087994	-4.057729721	-0.4364870787	1.0
15	2.295179844	0	0	-14.98242855	-4.183033466	-0.5410467982	1.0
[RightShoulder]
10	-0.3601199985	1.946700096	-0.02662999928	-5.755284309	1.946354985	173.6696472	1.0
11	-0.3601199985	1.946700096	-0.02662999928	-5.752182961	2.083320856	173.6970825	1.0
12	-0.3601199985	1.946700096	-0.02662999928	-5.771290302	2.166841269	173.7228394	1.0
13	-0.3601199985	1.946700096	-0.02662999928	-5.821910858	2.271609783	173.6767273	1.0
14	-0.3601199985	1.946700096	-0.02662999928	-5.764903545	2.423017502	173.6591492	1.0
15	-0.3601199985	1.946700096	-0.02662999928	-6.146608353	3.52904129	173.2527466	1.0
[RightArm]
10	-1.140689969	0	0	53.93686676	-0.9349501133	-95.76524353	1.0
11	-1.140689969	0	0	54.46231842	-0.829516232	-95.63574219	1.0
12	-1.140689969	0	0	55.08685303	-0.6588207483	-95.49105072	1.0
13	-1.140689969	0	0	55.80669785	-0.5118920207	-95.31532288	1.0
14	-1.140689969	0	0	56.7551651	-0.2628111243	-95.16046143	1.0
15	-1.140689969	0	0	57.31588364	0.2072346509	-95.85822296	1.0
[RightForeArm]
10	-2.749800205	0	0	-1.669162989	12.50323963	177.0163269	1.0
11	-2.749800205	0	0	-1.735995889	12.70041847	176.8135986	1.0
12	-2.749800205	0	0	-1.709461451	13.02510452	176.7001648	1.0
13	-2.749800205	0	0	-1.233644724	13.46832561	176.7823944	1.0
14	-2.749800205	0	0	-0.4871524274	14.16334343	176.9474182	1.0
15	-2.749800205	0	0	0.1817313433	14.90801334	177.2882233	1.0
[RightHand]
10	-2.295179844	0	0	-1.71702981	8.003811836	174.6465607	1.0
11	-2.295179844	0	0	-1.760116577	8.251247406	174.7506409	1.0
12	-2.295179844	0	0	-1.715942144	8.489883423	174.8395081	1.0
13	-2.295179844	0	0	-1.253276348	8.672682762	174.733078	1.0
14	-2.295179844	0	0	-0.560080111	8.915194511	174.2035828	1.0
15	-2.295179844	0	0	0.02942957729	9.17974472	173.6951904	1.0
[LeftUpLeg]
10	0.9094099998	0	0	5.435680389	4.428946495	92.42253113	1.0
11	0.9094099998	0	0	5.265832424	4.793151855	92.48577881	1.0
12	0.9094099998	0	0	4.974181652	5.258831978	92.71846771	1.0
13	0.9094099998	0	0	4.485784054	5.972323418	92.81190491	1.0
14	0.9094099998	0	0	3.774774075	6.474025726	92.68390656	1.0
15	0.9094099998	0	0	3.321893215	6.180493355	92.38512421	1.0
[LeftLeg]
10	0	-4.498080254	0	5.18744278	-6.125784874	88.49107361	1.0
11	0	-4.498080254	0	5.063339233	-6.049770832	88.44200897	1.0
12	0	-4.498080254	0	4.874286652	-6.342737198	88.06568909	1.0
13	0	-4.498080254	0	4.90288353	-6.850485325	87.6410675	1.0
14	0	-4.498080254	0	5.088635445	-6.860208988	86.99545288	1.0
15	0	-4.498080254	0	5.60623455	-7.685355186	85.95333099	1.0
[LeftFoot]
10	0	-3.729400158	0	-101.8616638	109.7164612	-37.72385025	1.0
11	0	-3.729400158	0	-101.7748566	109.7340088	-37.6205864	1.0
12	0	-3.729400158	0	-100.4390182	109.810997	-36.11808014	1.0
13	0	-3.729400158	0	-98.99097443	110.4665985	-34.53945923	1.0
14	0	-3.729400158	0	-97.98788452	110.742157	-33.06154633	1.0
15	0	-3.729400158	0	-94.36224365	112.0161285	-28.17952538	1.0
[LeftToeBase]
10	0	-0.5911099911	1.364109993	0	0	0	1.0
11	0	-0.5911099911	1.364109993	0	0	0	1.0
12	0	-0.5911099911	1.364109993	0	0	0	1.0
13	0	-0.5911099911	1.364109993	0	0	0	1.0
14	0	-0.5911099911	1.364109993	0	0	0	1.0
15	0	-0.5911099911	1.364109993	0	0	0	1.0
[RightUpLeg]
10	-0.9094099998	0	0	-1.790909052	-3.464436054	93.77818298	1.0
11	-0.9094099998	0	0	-2.337540627	-3.094775438	93.94844055	1.0
12	-0.9094099998	0	0	-3.705549479	-2.59430027	94.28092957	1.0
13	-0.9094099998	0	0	-6.404617786	-2.051404715	94.76073456	1.0
14	-0.9094099998	0	0	-10.43516922	-2.165710926	95.57074738	1.0
15	-0.9094099998	0	0	-14.07143402	-3.768633842	96.59275055	1.0
[RightLeg]
10	0	-4.498080254	0	8.794561386	1.579711199	90.59018707	1.0
11	0	-4.498080254	0	9.271296501	1.269650459	90.37265015	1.0
12	0	-4.498080254	0	11.1059227	1.398547053	90.04249573	1.0
13	0	-4.498080254	0	15.54613686	1.750993013	89.23982239	1.0
14	0	-4.498080254	0	22.39127922	0.7487059832	86.71109009	1.0
15	0	-4.498080254	0	28.84753609	-2.341891766	82.33555603	1.0
[RightFoot]
10	0	-3.729400158	0	24.43543434	65.74763489	82.39093018	1.0
11	0	-3.729400158	0	25.22460175	65.72836304	83.34980774	1.0
12	0	-3.729400158	0	24.70031357	65.15361786	83.30014038	1.0
13	0	-3.729400158	0	24.4616127	63.93983078	84.12757111	1.0
14	0	-3.729400158	0	29.10623169	63.09336853	90.33532715	1.0
15	0	-3.729400158	0	36.98044968	62.41609192	99.45960236	1.0
[RightToeBase]
10	0	-0.5911099911	1.364109993	0	0	0	1.0
11	0	-0.5911099911	1.364109993	0	0	0	1.0
12	0	-0.5911099911	1.364109993	0	0	0	1.0
13	0	-0.5911099911	1.364109993	0	0	0	1.0
14	0	-0.5911099911	1.364109993	0	0	0	1.0
15	0	-0.5911099911	1.364109993	0	0	0	1.0
[EndOfFile]
